<svg width="31" height="30" viewBox="0 0 31 30" fill="none" xmlns="http://www.w3.org/2000/svg">
<g  clip-path="url(#clip0_2939_5974)">
<g >
<path d="M30.7989 8.82734L22.1106 0.137286C22.0671 0.0937739 22.0154 0.0592544 21.9586 0.0356987C21.9018 0.0121431 21.8409 1.25989e-05 21.7793 0H11.9383C9.64777 0 7.7843 1.86353 7.7843 4.1541V12.3757H4.13856C3.43426 12.3757 2.86133 12.9487 2.86133 13.653V20.9959C2.86133 21.7002 3.43432 22.2732 4.13856 22.2732H7.7843V25.8459C7.7843 28.1365 9.64777 30 11.9383 30H26.7821C29.0726 30 30.9362 28.1365 30.9362 25.8459V9.15845C30.9361 9.03426 30.8867 8.91517 30.7989 8.82734ZM22.2477 1.59939L29.3371 8.69005H22.7161C22.4579 8.69005 22.2477 8.47917 22.2477 8.22006V1.59939ZM3.79801 20.996V13.653C3.79812 13.5627 3.83403 13.4762 3.89786 13.4123C3.96169 13.3485 4.04824 13.3126 4.13851 13.3125H24.1545C24.2448 13.3126 24.3313 13.3485 24.3952 13.4123C24.459 13.4762 24.4949 13.5627 24.495 13.653V20.9959C24.4949 21.0862 24.459 21.1728 24.3952 21.2366C24.3313 21.3004 24.2448 21.3363 24.1545 21.3364H4.13851C4.04824 21.3363 3.9617 21.3004 3.89787 21.2366C3.83403 21.1728 3.79812 21.0863 3.79801 20.996ZM26.7821 29.0631H11.9383C10.1643 29.0631 8.72104 27.6199 8.72104 25.8459V22.2732H24.1545C24.8588 22.2732 25.4318 21.7002 25.4318 20.9959V13.653C25.4318 12.9487 24.8588 12.3757 24.1545 12.3757H8.72104V4.1541C8.72104 2.3801 10.1643 0.936863 11.9383 0.936863H21.3109V8.22006C21.3109 8.99579 21.9413 9.62691 22.7161 9.62691H29.9993V25.846C29.9993 27.6199 28.5561 29.0631 26.7821 29.0631ZM11.0862 14.8123V18.3285C11.0862 19.4192 10.1988 20.3067 9.10806 20.3067C8.26541 20.3067 7.51418 19.7708 7.23861 18.9731C7.20055 18.8563 7.20986 18.7293 7.26455 18.6193C7.31925 18.5093 7.41494 18.4252 7.53102 18.3851C7.6471 18.345 7.7743 18.3521 7.88521 18.4049C7.99612 18.4576 8.08188 18.5518 8.12402 18.6672C8.26922 19.0875 8.66467 19.3698 9.10806 19.3698C9.68228 19.3698 10.1494 18.9027 10.1494 18.3285V14.8123C10.1488 14.7504 10.1604 14.6889 10.1836 14.6315C10.2068 14.574 10.2412 14.5218 10.2848 14.4777C10.3283 14.4337 10.3802 14.3987 10.4374 14.3748C10.4945 14.351 10.5559 14.3387 10.6178 14.3387C10.6798 14.3387 10.7411 14.351 10.7983 14.3748C10.8555 14.3987 10.9073 14.4337 10.9509 14.4777C10.9944 14.5218 11.0288 14.574 11.0521 14.6315C11.0753 14.6889 11.0869 14.7504 11.0862 14.8123ZM14.144 14.3439H12.6342C12.51 14.3439 12.3908 14.3933 12.303 14.4811C12.2151 14.569 12.1658 14.6881 12.1658 14.8123V19.8382C12.1658 19.9625 12.2151 20.0816 12.303 20.1695C12.3908 20.2573 12.51 20.3066 12.6342 20.3066C12.7584 20.3066 12.8776 20.2573 12.9654 20.1695C13.0532 20.0816 13.1026 19.9625 13.1026 19.8382V18.3634H14.1439C15.2347 18.3634 16.1221 17.4759 16.1221 16.3852V16.3221C16.1222 15.2314 15.2347 14.3439 14.144 14.3439ZM15.1854 16.3852C15.1854 16.9594 14.7182 17.4266 14.1441 17.4266H13.1027V15.2807H14.1441C14.7183 15.2807 15.1854 15.7479 15.1854 16.3221V16.3852ZM18.0622 15.6378V19.0111C18.0623 19.1062 18.1001 19.1974 18.1674 19.2647C18.2346 19.3319 18.3258 19.3697 18.4209 19.3698H19.7862C19.8813 19.3697 19.9725 19.3319 20.0397 19.2647C20.107 19.1974 20.1448 19.1062 20.1449 19.0111V18.0246H19.1036C18.9794 18.0246 18.8602 17.9753 18.7724 17.8874C18.6845 17.7996 18.6352 17.6805 18.6352 17.5562C18.6352 17.432 18.6845 17.3129 18.7724 17.225C18.8602 17.1372 18.9794 17.0878 19.1036 17.0878H20.6134C20.7376 17.0878 20.8567 17.1372 20.9446 17.225C21.0324 17.3129 21.0818 17.432 21.0818 17.5562V19.0112C21.0818 19.7255 20.5006 20.3067 19.7863 20.3067H18.421C17.7066 20.3067 17.1254 19.7255 17.1254 19.0112V15.6379C17.1254 14.9244 17.7066 14.344 18.421 14.344H19.7863C20.5006 14.344 21.0818 14.9244 21.0818 15.6379C21.0818 15.7621 21.0324 15.8812 20.9446 15.9691C20.8567 16.0569 20.7376 16.1063 20.6134 16.1063C20.4891 16.1063 20.37 16.0569 20.2822 15.9691C20.1943 15.8812 20.145 15.7621 20.145 15.6379C20.145 15.441 19.9841 15.2808 19.7863 15.2808H18.421C18.2231 15.2808 18.0622 15.4409 18.0622 15.6378Z" fill="#103B81" fill-opacity="0.2"/>
</g>
</g>
<defs>
<clipPath id="clip0_2939_5974">
<rect width="30" height="30" fill="white" transform="translate(0.611328)"/>
</clipPath>
</defs>
</svg>
