<svg width="19" height="19" viewBox="0 0 19 19" xmlns="http://www.w3.org/2000/svg">
<path d="M0.156546 17.4169L4.32088 13.2531C3.04029 11.8012 2.33505 9.93096 2.33812 7.99501C2.33812 5.85927 3.1696 3.85146 4.67959 2.34147C6.18958 0.831481 8.19739 0 10.3326 0C12.4678 0 14.4761 0.83148 15.9867 2.34094C17.4972 3.85039 18.3281 5.85874 18.3281 7.99447C18.3281 10.1302 17.4966 12.1375 15.9867 13.6475C14.4767 15.1575 12.4689 15.9895 10.3331 15.9895C8.37701 15.9895 6.53283 15.2843 5.07507 14.0062L0.911274 18.17C0.861889 18.2197 0.803173 18.2591 0.738503 18.286C0.673832 18.3129 0.604483 18.3267 0.534441 18.3267C0.464401 18.3267 0.395054 18.3129 0.330383 18.286C0.265711 18.2591 0.206997 18.2197 0.157612 18.17C0.0576897 18.07 0.0015564 17.9345 0.0015564 17.7932C0.0015564 17.6518 0.0576897 17.5163 0.157612 17.4163L0.156546 17.4169ZM15.233 12.8943C16.5415 11.5853 17.2621 9.84558 17.2621 7.99501C17.2621 6.14443 16.5415 4.40418 15.233 3.09513C13.9239 1.78662 12.1842 1.066 10.3331 1.066C8.48201 1.066 6.7423 1.78662 5.43325 3.09513C4.12473 4.40418 3.40358 6.1439 3.40358 7.99501C3.40358 9.84612 4.12473 11.5853 5.43325 12.8943C6.7423 14.2029 8.48201 14.924 10.3326 14.924C12.1832 14.924 13.9245 14.2029 15.233 12.8943Z" />
</svg>
